<svg width="25" height="25" viewBox="0 0 25 25" fill="none" xmlns="http://www.w3.org/2000/svg">
<path d="M18.0443 8.89371C18.0443 7.29848 17.4106 5.76859 16.2826 4.6406C15.1546 3.51261 13.6248 2.87891 12.0295 2.87891C10.4343 2.87891 8.90442 3.51261 7.77642 4.6406C6.64843 5.76859 6.01473 7.29848 6.01473 8.89371C6.01473 15.911 3.00732 17.9159 3.00732 17.9159H21.0517C21.0517 17.9159 18.0443 15.911 18.0443 8.89371Z" stroke="#929FB0" stroke-width="1.5" stroke-linecap="round" stroke-linejoin="round"/>
<path d="M13.7639 21.9258C13.5877 22.2296 13.3347 22.4818 13.0304 22.6571C12.726 22.8325 12.3809 22.9247 12.0297 22.9247C11.6784 22.9247 11.3334 22.8325 11.029 22.6571C10.7246 22.4818 10.4717 22.2296 10.2954 21.9258" stroke="#929FB0" stroke-width="1.5" stroke-linecap="round" stroke-linejoin="round"/>
</svg>
