<svg width="12" height="12" viewBox="0 0 12 12" fill="none" xmlns="http://www.w3.org/2000/svg">
<g clip-path="url(#clip0_1109_3558)">
<path d="M10.9998 5.54005V6.00005C10.9991 7.07826 10.65 8.12739 10.0044 8.99097C9.35884 9.85454 8.4514 10.4863 7.41743 10.792C6.38347 11.0977 5.27839 11.061 4.26699 10.6873C3.2556 10.3137 2.39208 9.6231 1.80524 8.71859C1.21839 7.81407 0.939651 6.74409 1.01059 5.66821C1.08154 4.59234 1.49836 3.56822 2.1989 2.74859C2.89943 1.92896 3.84615 1.35775 4.89785 1.12013C5.94955 0.882509 7.04989 0.991223 8.03476 1.43005" stroke="#355137" stroke-width="1.2" stroke-linecap="round" stroke-linejoin="round"/>
<path d="M11 2.00006L6 7.00506L4.5 5.50506" stroke="#355137" stroke-width="1.2" stroke-linecap="round" stroke-linejoin="round"/>
</g>
<defs>
<clipPath id="clip0_1109_3558">
<rect width="12" height="12" fill="white"/>
</clipPath>
</defs>
</svg>
