<svg width="12" height="12" viewBox="0 0 12 12" fill="none" xmlns="http://www.w3.org/2000/svg">
<g id="check-circle">
<path id="Vector" d="M11 5.47364L6.74501 9.72863C6.22374 10.2499 5.51675 10.5427 4.77956 10.5427C4.04238 10.5427 3.33538 10.2499 2.81411 9.72863C2.29285 9.20736 2 8.50037 2 7.76318C2 7.026 2.29285 6.31901 2.81411 5.79774L7.06911 1.54274C7.41662 1.19523 7.88795 1 8.37941 1C8.87086 1 9.34219 1.19523 9.6897 1.54274C10.0372 1.89026 10.2324 2.36158 10.2324 2.85304C10.2324 3.3445 10.0372 3.81583 9.6897 4.16334L5.43008 8.41833C5.25632 8.59209 5.02066 8.68971 4.77493 8.68971C4.5292 8.68971 4.29354 8.59209 4.11978 8.41833C3.94603 8.24458 3.84841 8.00891 3.84841 7.76318C3.84841 7.51746 3.94603 7.28179 4.11978 7.10804L8.05067 3.18177" stroke="#48244D" stroke-width="1.1" stroke-linecap="round" stroke-linejoin="round"/>
</g>
</svg>
