<svg width="32" height="33" viewBox="0 0 32 33" fill="none" xmlns="http://www.w3.org/2000/svg">
<g clip-path="url(#clip0_1488_10076)">
<path d="M12.5766 12.3535C11.982 12.2411 11.3847 12.1402 10.7928 12.0136C10.0993 11.8723 9.44435 11.5836 8.87217 11.1671C8.37442 10.8008 8.02117 10.3309 8.02444 9.70798C8.03013 8.61676 8.09029 7.52555 8.14589 6.43518C8.16694 6.02276 8.25339 5.61474 8.28411 5.20274C8.31199 4.7271 8.43845 4.26244 8.65545 3.83829C8.87246 3.41413 9.17529 3.03975 9.54471 2.73886C9.97022 2.38204 10.4202 2.01513 10.9215 1.79512C12.995 0.884939 15.101 0.0898044 17.4309 0.143704C18.9879 0.179826 20.5473 0.141868 22.0831 0.455739C23.2707 0.698501 24.3505 1.17747 25.2488 2.01042C26.0298 2.73458 26.4942 3.60807 26.525 4.69914C26.5478 5.49783 26.6179 6.29509 26.6661 7.07713C27.4853 7.26784 28.2731 7.40424 29.0286 7.64373C29.5354 7.80638 30.013 8.0497 30.4425 8.36432C31.0924 8.84302 31.308 9.57388 31.3397 10.3579C31.3986 11.8155 31.4393 13.274 31.5118 14.731C31.6077 16.6495 31.7615 18.5657 31.8272 20.485C31.9023 22.6726 31.9302 24.8626 31.9298 27.0514C31.9298 27.6991 31.752 28.3456 31.6776 28.9945C31.6065 29.6164 31.1991 29.9146 30.6717 30.1217C29.4741 30.5987 28.2252 30.9352 26.9502 31.1245C23.8851 31.5522 20.7727 31.5111 17.7199 31.0027C17.0532 30.8958 16.4037 30.681 15.69 30.5017C15.5857 30.587 15.4341 30.7051 15.289 30.8304C13.7783 32.135 12.0113 32.787 10.0321 32.9165C7.76972 33.0646 5.62212 32.6649 3.62499 31.5727C1.8719 30.6139 0.672892 29.2004 0.254494 27.2164C-0.751396 22.4476 2.30238 17.5827 7.0211 16.383C7.38872 16.2895 7.72252 16.0647 8.08986 15.9688C8.55163 15.8485 9.04185 15.6965 9.50163 15.7413C10.17 15.8071 10.8242 16.032 11.482 16.1988C11.7565 16.2683 12.0244 16.3629 12.3404 16.4599C12.4193 15.0814 12.4958 13.7557 12.5766 12.3535ZM9.33012 31.2823C9.67428 31.2424 10.2372 31.2187 10.7817 31.1065C13.3103 30.5849 15.0482 29.1962 15.6383 26.5851C15.867 25.587 15.8917 24.553 15.7108 23.5451C15.3154 21.3191 14.1785 19.6315 12.1438 18.6018C11.4955 18.2737 10.8176 18.0004 10.1398 17.7361C9.4057 17.4551 8.59848 17.4292 7.84795 17.6626C5.14273 18.4421 3.21173 20.0661 2.33895 22.7986C2.10674 23.4898 1.9535 24.205 1.88214 24.9304C1.67109 27.5375 2.61456 29.2348 4.88148 30.3116C6.22086 30.9477 7.6389 31.2354 9.33012 31.2823ZM16.1178 7.06393C17.8335 6.89427 19.4617 6.79114 21.0695 6.55108C21.9559 6.41236 22.819 6.15154 23.6339 5.77602C24.6085 5.33088 24.7131 4.51456 24.024 3.69128C23.8947 3.51415 23.7338 3.36255 23.5492 3.24415C22.9748 2.93682 22.4084 2.56152 21.79 2.39968C19.5495 1.80965 17.2149 1.66593 14.9191 1.97671C13.657 2.14623 12.4445 2.49126 11.3511 3.1729C10.7463 3.5502 10.1939 3.99107 9.88946 4.66005C9.61043 5.273 9.74724 5.7736 10.3457 6.07965C10.7945 6.32174 11.28 6.48837 11.7829 6.57285C13.2489 6.77693 14.7245 6.91162 16.1178 7.06393ZM24.919 7.33639C24.0176 7.60248 23.2175 7.89033 22.3939 8.07166C20.2451 8.54467 18.0592 8.61805 15.8682 8.55761C13.7035 8.49788 11.5471 8.37459 9.53959 7.39146V9.92901C10.1429 10.3474 10.6008 10.5567 11.5121 10.6613C12.9351 10.8245 14.3623 10.9767 15.792 11.0525C18.3202 11.1901 20.854 10.9127 23.2926 10.2312C23.892 10.0638 24.4906 9.86487 24.9194 9.54232L24.919 7.33639ZM30.0042 17.0123C28.851 17.5288 27.8611 18.055 26.8157 18.4242C24.2637 19.3254 21.6128 19.3301 18.957 19.0981C17.8982 19.0056 16.8477 18.8183 15.8141 18.6769C16.1197 19.1675 16.47 19.6626 16.748 20.1953C17.026 20.7281 17.2339 21.3019 17.496 21.9126C17.7738 21.9544 18.0813 22.0247 18.392 22.0434C21.2608 22.2203 24.1391 21.9252 26.9124 21.1702C27.8192 20.9239 28.682 20.5125 29.559 20.1618C29.7806 20.073 30.0063 19.956 30.0052 19.6498C30.002 18.7811 30.0042 17.9128 30.0042 17.0123ZM14.2534 16.7226C14.7816 16.8894 15.325 17.114 15.8906 17.2306C18.4943 17.7652 21.1702 17.8509 23.8029 17.4843C25.7684 17.2168 27.5349 16.4219 29.1372 15.2643C29.3412 15.117 29.6065 14.9088 29.6377 14.6971C29.7116 14.2004 29.6614 13.6853 29.6614 13.1671C29.5966 13.1774 29.5337 13.1982 29.4757 13.2287C28.1542 14.2137 26.6351 14.6839 25.0359 14.9625C22.6804 15.3552 20.2838 15.4395 17.9066 15.2135C16.7193 15.1106 15.5394 14.9244 14.4255 14.4588C14.2832 14.3996 14.1371 14.3524 13.9231 14.274C14.0364 15.1097 14.136 15.8497 14.2534 16.7226ZM16.6322 29.3169C18.9567 30.1348 27.2782 30.1538 30.3196 28.1365C30.2532 27.4721 30.1848 26.7903 30.1145 26.091C25.9832 27.6523 21.7717 27.8269 17.4949 27.3751C17.1994 28.0397 16.9158 28.6782 16.6322 29.3169ZM30.0073 22.0221C26.11 23.4349 21.9307 23.8909 17.8206 23.3522V25.7541C17.8873 25.7995 17.9066 25.8239 17.9275 25.8252C18.3401 25.8511 18.7525 25.8753 19.1648 25.8978C21.9138 26.0474 24.6698 25.7887 27.343 25.1298C28.2773 24.9101 29.1745 24.5557 30.0067 24.0774L30.0073 22.0221ZM26.7608 8.91756C26.7153 8.98767 26.6613 9.03332 26.6672 9.06717C26.8311 9.92331 26.3282 10.4235 25.7259 10.8884C24.9331 11.4999 24.004 11.7825 23.0555 11.9998C20.2973 12.6133 17.4595 12.7881 14.6468 12.5179C14.444 12.5001 14.2382 12.5156 14.0339 12.5156C14.1772 12.7424 14.3896 12.9171 14.6398 13.0141C15.1151 13.1975 15.6056 13.3393 16.1055 13.4377C19.065 13.9164 22.0863 13.8589 25.0255 13.2678C26.1257 13.0535 27.2069 12.7167 28.0914 11.9901C28.4791 11.6647 28.808 11.2751 29.0637 10.8382C29.3302 10.3869 29.1909 9.99443 28.7608 9.7053C28.1596 9.29985 27.477 9.03096 26.7608 8.91756Z" fill="#DDAA42"/>
<path d="M9.03824 21.4758V24.1494C9.42792 24.2963 9.79199 24.4176 10.144 24.569C11.5266 25.1641 11.8668 26.463 10.9603 27.6579C10.587 28.1499 10.2919 28.349 9.19084 28.8548C9.08702 29.3828 8.98235 29.9033 8.88295 30.4247C8.82762 30.7152 8.68895 30.9401 8.37181 30.9475C8.03717 30.9553 7.91958 30.6824 7.85985 30.4203C7.74792 29.9272 7.6717 29.4258 7.57015 28.87C7.16527 28.7619 6.72454 28.6476 6.2858 28.5257C6.07335 28.4756 5.86539 28.4082 5.66404 28.3242C5.26285 28.137 5.10143 27.824 5.17823 27.4468C5.24934 27.097 5.54998 26.8758 6.01289 26.9064C6.51719 26.9393 7.01822 27.0249 7.50786 27.086C7.71237 26.5221 7.73539 26.1865 7.64665 25.2264C7.30533 25.0984 6.9363 24.9855 6.58901 24.8254C5.18392 24.1773 4.87432 22.7738 5.86997 21.587C6.28097 21.0702 6.8225 20.6724 7.4386 20.4349C7.81434 20.2986 7.9648 20.0698 7.97902 19.6802C7.98242 19.4138 8.04052 19.151 8.14968 18.9081C8.19656 18.8297 8.26159 18.7639 8.3393 18.7161C8.417 18.6683 8.50509 18.6398 8.5961 18.6333C8.68419 18.6583 8.76506 18.704 8.832 18.7664C8.89893 18.829 8.94999 18.9066 8.98093 18.9928C9.0419 19.3036 9.07521 19.6191 9.08048 19.9359C9.41534 20.0121 9.74607 20.1054 10.0713 20.2156C10.5902 20.4198 10.8358 20.8224 10.7726 21.2812C10.7165 21.6874 10.4957 21.8246 10.1168 21.6578C9.78515 21.5122 9.47627 21.2963 9.03824 21.4758ZM7.75717 22.0058C7.04609 22.4278 6.68202 22.8764 6.81342 23.2109C6.96986 23.6103 7.33464 23.711 7.75717 23.7657V22.0058ZM9.08603 27.0165C9.55861 26.842 9.99166 26.6332 9.97744 26.1544C9.96549 25.7529 9.52306 25.671 9.16339 25.6164C9.14277 25.6132 9.11887 25.6316 9.02799 25.6657C9.02799 25.9452 9.02301 26.2512 9.03027 26.557C9.03354 26.6908 9.06171 26.8241 9.08603 27.0165Z" fill="#DDAA42"/>
</g>
<defs>
<clipPath id="clip0_1488_10076">
<rect width="31.9985" height="32.994" fill="white"/>
</clipPath>
</defs>
</svg>
