<svg width="34" height="34" viewBox="0 0 34 34" fill="none" xmlns="http://www.w3.org/2000/svg">
<g id="home" clip-path="url(#clip0_1366_1670)">
<path id="Vector" d="M31.9986 14.1144C31.8002 13.9349 31.5949 13.7493 31.3992 13.562C29.7632 11.9963 28.1277 10.4299 26.4926 8.86298C23.6923 6.18066 20.8911 3.49982 18.0889 0.820418C17.0791 -0.144336 16.6397 -0.135831 15.6142 0.868978L14.8891 1.57943C11.3232 5.07274 7.63592 8.68511 3.99681 12.2251C3.22378 12.9769 2.41559 13.7203 1.63395 14.4384C1.25569 14.7858 0.878202 15.1344 0.501493 15.4839C0.339089 15.6348 -0.155239 16.0955 0.270131 16.5907C0.554988 16.9223 0.935073 16.9022 1.39971 16.531C1.70249 16.2887 2.005 16.0372 2.29766 15.793C2.48647 15.6355 2.67569 15.4788 2.86532 15.3226C2.94823 15.254 3.03456 15.192 3.16564 15.0974L3.2086 15.0662C3.2086 15.3585 3.21051 15.6424 3.21188 15.9189C3.21544 16.6756 3.21872 17.3904 3.20518 18.1007C3.17918 19.4517 3.1499 20.8026 3.11734 22.1537C3.07711 23.9161 3.03525 25.7385 3.00583 27.5309C2.98695 28.6695 2.97614 29.8788 3.0674 31.0563C3.16591 32.3273 3.65203 32.7878 4.99408 32.8808C5.80925 32.9375 6.6381 33.0017 7.43972 33.0642C9.02531 33.1876 10.6648 33.3146 12.2808 33.389C16.1406 33.5665 20.0612 33.7012 23.934 33.7895C24.0709 33.7926 24.2093 33.7941 24.3493 33.7942C25.4817 33.7854 26.6125 33.7037 27.7345 33.5492C29.4162 33.3307 30.0252 32.7418 30.2406 31.1257C30.5109 29.0988 30.693 26.9643 30.7974 24.5998C30.8896 22.5084 30.9243 20.4553 30.9608 18.2819C30.9747 17.4606 30.9898 16.6326 31.0058 15.7979C31.1485 15.9328 31.2718 16.0492 31.4015 16.1616C31.9163 16.6077 32.4702 16.6461 32.8463 16.2617C32.9311 16.1776 32.9982 16.0772 33.0433 15.9666C33.0886 15.8559 33.111 15.7373 33.1095 15.6178C33.0894 15.2857 32.9388 14.9753 32.6906 14.7546C32.4646 14.536 32.2276 14.3211 31.9986 14.1144ZM12.9944 20.4778L19.4452 19.8668L19.6475 32.1388L12.7424 31.8727L12.9944 20.4778ZM21.354 21.6248C21.3523 21.003 21.3189 20.3727 21.2867 19.7632C21.2785 19.6078 21.2705 19.4523 21.2627 19.2968C21.2409 18.8602 21.121 18.5527 20.8963 18.3564C20.6676 18.1568 20.3364 18.0783 19.8838 18.1193C17.2652 18.3513 14.8647 18.5495 12.5453 18.7251C11.5617 18.7996 11.2302 19.1577 11.231 20.1447C11.2351 24.3619 11.234 27.5972 11.2271 30.6347C11.2215 30.9006 11.2023 31.1662 11.1697 31.4303C11.1596 31.5271 11.149 31.6264 11.1393 31.729L4.62029 31.3224C4.60853 31.2213 4.59567 31.123 4.58281 31.0264C4.54265 30.7694 4.51979 30.5098 4.5144 30.2496C4.52096 29.1157 4.53423 27.9627 4.5471 26.8477C4.56228 25.5171 4.57802 24.1413 4.58267 22.7881C4.58718 21.5133 4.58376 20.2174 4.58062 18.9642C4.57679 17.449 4.57282 15.8821 4.58239 14.3414C4.58194 14.0647 4.67944 13.7969 4.85752 13.5855C7.80063 10.7522 10.8092 7.88823 13.7189 5.11866L15.0767 3.82595C15.5113 3.41209 15.9489 3.00154 16.3957 2.58206L16.9485 2.0627C17.3414 2.44021 17.7333 2.81577 18.1239 3.18943C19.0277 4.05473 19.9623 4.9497 20.8694 5.83435C22.0245 6.96101 23.1777 8.08925 24.3293 9.21912C25.7972 10.6573 27.3148 12.1441 28.8133 13.601C29.1215 13.9009 29.2622 14.1407 29.1758 14.6194C29.1248 15.0052 29.126 15.396 29.1797 15.7815C29.208 16.0306 29.2217 16.2812 29.2207 16.5319L29.2061 17.1081C29.1466 19.432 29.0851 21.8347 28.9725 24.1948C28.9054 25.6043 28.7947 27.0365 28.6889 28.4215C28.6409 29.0459 28.5931 29.6706 28.5484 30.2951L28.5463 30.3235C28.5422 30.3817 28.5381 30.4401 28.5307 30.498C28.374 31.7396 28.2656 31.851 27.0827 31.9873C25.1829 32.2076 23.2679 32.2673 21.3582 32.1657L21.359 29.4379C21.3602 26.8726 21.3613 24.2203 21.3542 21.6248H21.354Z" fill="#DDAA42"/>
</g>
<defs>
<clipPath id="clip0_1366_1670">
<rect width="33.247" height="33.8823" fill="white"/>
</clipPath>
</defs>
</svg>
