<svg width="12" height="12" viewBox="0 0 12 12" fill="none" xmlns="http://www.w3.org/2000/svg">
<g id="check">
<path id="Vector" d="M9 4C9 5.65685 7.65685 7 6 7C4.34315 7 3 5.65685 3 4C3 2.34315 4.34315 1 6 1C7.65685 1 9 2.34315 9 4Z" fill="#E3DDF0" stroke="#48244D" stroke-linecap="round" stroke-linejoin="round"/>
<g id="Vector_2">
<mask id="path-2-inside-1_1109_3213" fill="white">
<path d="M4.105 6.94494L3.5 11.4999L6 9.99994L8.5 11.4999L7.895 6.93994"/>
</mask>
<path d="M4.105 6.94494L3.5 11.4999L6 9.99994L8.5 11.4999L7.895 6.93994" fill="#E3DDF0"/>
<path d="M7.895 7.43994C8.17114 7.43994 8.395 7.21608 8.395 6.93994C8.395 6.6638 8.17114 6.43994 7.895 6.43994V7.43994ZM4.105 6.43994C3.82886 6.43994 3.605 6.6638 3.605 6.93994C3.605 7.21608 3.82886 7.43994 4.105 7.43994V6.43994ZM7.895 6.43994H4.105V7.43994H7.895V6.43994ZM5.09629 7.07661C5.16901 6.52913 4.78414 6.02636 4.23666 5.95365C3.68919 5.88093 3.18642 6.2658 3.11371 6.81328L5.09629 7.07661ZM3.5 11.4999L2.50871 11.3683C2.45815 11.7489 2.63002 12.1249 2.95096 12.3357C3.2719 12.5466 3.68522 12.555 4.0145 12.3574L3.5 11.4999ZM6 9.99994L6.5145 9.14245C6.19781 8.95244 5.80219 8.95244 5.4855 9.14245L6 9.99994ZM8.5 11.4999L7.9855 12.3574C8.31476 12.555 8.72804 12.5466 9.04898 12.3358C9.36991 12.125 9.54181 11.7491 9.49131 11.3684L8.5 11.4999ZM8.88631 6.80842C8.81368 6.26093 8.31096 5.87599 7.76348 5.94863C7.21599 6.02127 6.83105 6.52398 6.90369 7.07146L8.88631 6.80842ZM3.11371 6.81328L2.50871 11.3683L4.49129 11.6316L5.09629 7.07661L3.11371 6.81328ZM4.0145 12.3574L6.5145 10.8574L5.4855 9.14245L2.9855 10.6424L4.0145 12.3574ZM5.4855 10.8574L7.9855 12.3574L9.0145 10.6424L6.5145 9.14245L5.4855 10.8574ZM9.49131 11.3684L8.88631 6.80842L6.90369 7.07146L7.50869 11.6315L9.49131 11.3684Z" fill="#48244D" mask="url(#path-2-inside-1_1109_3213)"/>
</g>
</g>
</svg>
